<?xml version="1.0" encoding="utf-8"?>
<!-- Generator: Adobe Illustrator 22.0.1, SVG Export Plug-In . SVG Version: 6.00 Build 0)  -->
<svg version="1.1" id="Layer_1" xmlns="http://www.w3.org/2000/svg" xmlns:xlink="http://www.w3.org/1999/xlink" x="0px" y="0px"
	 viewBox="0 0 118.6 85.1" style="enable-background:new 0 0 118.6 85.1;" xml:space="preserve">
<style type="text/css">
	.st0{fill:#666666;}
	.st1{fill:#666666;stroke:#666666;stroke-width:5;stroke-miterlimit:10;}
	.st2{fill:#666666;stroke:#666666;stroke-width:4;stroke-miterlimit:10;}
</style>
<path class="st0" d="M119,13.7L118.5,26C102,25.3,81.6,52,75.2,62.3L71,68.8l-20.8-21l-5.6-5.6l0.9-0.9l7.8-7.7l7.7,7.7l6.5,6.5
	l1.6,1.6c0.4-0.5,0.8-1.1,1.2-1.6c1.4-1.8,3-3.9,4.8-6.1c1.8-2.2,3.8-4.5,5.9-6.8C94.5,20.4,107.3,13.2,119,13.7z"/>
<path class="st1" d="M95.9,70.3c0,3.9-3.2,7.1-7.1,7.1H14.7c-3.9,0-7.1-3.2-7.1-7.1V14.5c0-3.9,3.2-7.1,7.1-7.1h74.1
	c3.4,0,6.3,2.5,6.9,5.7l4-1.6C98.4,6.6,94,3,88.7,3h-74C8.4,3.1,3.3,8.2,3.3,14.5v55.8c0,6.3,5.1,11.4,11.4,11.4h74.1
	c6.3,0,11.4-5.1,11.4-11.4v-26l-4.3,2.2C95.9,46.5,95.9,70.3,95.9,70.3z"/>
<path class="st2" d="M75.4,27.3H23.5c-1.8,0-3.3-1.5-3.3-3.3l0,0c0-1.8,1.5-3.3,3.3-3.3h51.9c1.8,0,3.3,1.5,3.3,3.3l0,0
	C78.7,25.9,77.2,27.3,75.4,27.3z"/>
<path class="st2" d="M62.9,47.8H22.1c-1.6,0-2.9-1.5-2.9-3.3c0-0.9,0.3-1.7,0.9-2.3c0.5-0.6,1.3-1,2-1h35L62.9,47.8z"/>
</svg>
