<?xml version="1.0" encoding="utf-8"?>
<!-- Generator: Adobe Illustrator 22.0.1, SVG Export Plug-In . SVG Version: 6.00 Build 0)  -->
<svg version="1.1" id="Layer_1" xmlns="http://www.w3.org/2000/svg" xmlns:xlink="http://www.w3.org/1999/xlink" x="0px" y="0px"
	 viewBox="0 0 92 92" style="enable-background:new 0 0 92 92;" xml:space="preserve">
<style type="text/css">
	.st0{fill:#666666;}
</style>
<title>List</title>
<path class="st0" d="M31.5,18.5h48c3.3,0,6,2.7,6,6l0,0c0,3.3-2.7,6-6,6h-48c-3.3,0-6-2.7-6-6l0,0C25.5,21.2,28.2,18.5,31.5,18.5z"
	/>
<path class="st0" d="M31.5,38.5h48c3.3,0,6,2.7,6,6l0,0c0,3.3-2.7,6-6,6h-48c-3.3,0-6-2.7-6-6l0,0C25.5,41.2,28.2,38.5,31.5,38.5z"
	/>
<path class="st0" d="M31.5,58.5h48c3.3,0,6,2.7,6,6l0,0c0,3.3-2.7,6-6,6h-48c-3.3,0-6-2.7-6-6l0,0C25.5,61.2,28.2,58.5,31.5,58.5z"
	/>
<circle class="st0" cx="11.5" cy="24.5" r="6"/>
<circle class="st0" cx="11.5" cy="44.5" r="6"/>
<circle class="st0" cx="11.5" cy="64.5" r="6"/>
</svg>
