<?xml version="1.0" encoding="utf-8"?>
<!-- Generator: Adobe Illustrator 22.0.1, SVG Export Plug-In . SVG Version: 6.00 Build 0)  -->
<svg version="1.1" id="Layer_1" xmlns="http://www.w3.org/2000/svg" xmlns:xlink="http://www.w3.org/1999/xlink" x="0px" y="0px"
	 viewBox="0 0 224 190" style="enable-background:new 0 0 224 190;" xml:space="preserve">
<style type="text/css">
	.st0{fill:#666666;stroke:#666666;stroke-width:2;stroke-miterlimit:10;}
	.st1{fill:none;stroke:#666666;stroke-width:8;stroke-miterlimit:10;}
</style>
<path class="st0" d="M151,45.8h-15.4V31.7c0-9-4.5-12.9-13.8-12.9H72.2c-9,0-14.4,4.2-14.4,12.9v14.1H21.1
	c-7.8,0-11.1,3.6-11.1,11.1v110.8c0,7.5,4.2,12,12,12h149.6c7.8,0,12-2.4,12-9.9v-24.1l-0.2-0.3h-8.8v19.1h-0.1c0,3.3,0.3,6.3-3,6.3
	H24.4c-3.3,0-5.4-3-5.4-6.3V59.8c0-3.3,1.5-5.1,5.1-5.1H151 M66.8,31.7c0-3.9,1.5-3.9,5.4-3.9h49.7c3.9,0,4.8,0.3,4.8,3.9v14.1H66.8
	V31.7z"/>
<path class="st1" d="M132.6,138.8L96,156.6c-4.8,2.4-10.7,0.3-13-4.5l-14.3-29.3c-2.4-4.8-0.3-10.7,4.5-13L109.7,92
	c4.8-2.4,10.7-0.3,13,4.5l14.3,29.3C139.4,130.6,137.4,136.5,132.6,138.8z"/>
<path class="st1" d="M206.3,102.9l-36.5,17.8c-4.8,2.4-10.7,0.3-13-4.5l-14.3-29.3c-2.4-4.8-0.3-10.7,4.5-13l36.5-17.8
	c4.8-2.4,10.7-0.3,13,4.5l14.3,29.3C213.2,94.7,211.2,100.6,206.3,102.9z"/>
<path class="st0" d="M180.7,92.8l-76,37c-3.2,1.5-7.1,0.2-8.6-3l0,0c-1.5-3.2-0.2-7.1,3-8.6l76-37c3.2-1.5,7.1-0.2,8.6,3l0,0
	C185.2,87.3,183.8,91.2,180.7,92.8z"/>
</svg>
