<?xml version="1.0" encoding="utf-8"?>
<!-- Generator: Adobe Illustrator 22.0.1, SVG Export Plug-In . SVG Version: 6.00 Build 0)  -->
<svg version="1.1" id="Layer_1" xmlns="http://www.w3.org/2000/svg" xmlns:xlink="http://www.w3.org/1999/xlink" x="0px" y="0px"
	 viewBox="0 0 200 200" style="enable-background:new 0 0 200 200;" xml:space="preserve">
<style type="text/css">
	.st0{fill:#666666;stroke:#666666;stroke-width:14;stroke-miterlimit:10;}
	.st1{fill:#666666;}
</style>
<path class="st0" d="M81.9,107.4l18.1,35.1l18.1-35.1c13.5-6.7,22.9-20.6,22.9-36.8c0-22.6-18.4-41-41-41S59,48,59,70.7
	C59,86.8,68.3,100.7,81.9,107.4z M100,48c12.5,0,22.7,10.2,22.7,22.7S112.5,93.3,100,93.3c-12.5,0-22.7-10.1-22.7-22.7
	C77.3,58.1,87.5,48,100,48z"/>
<path class="st1" d="M189.8,179.3L170.1,107c-0.7-2.7-3.2-4.5-5.9-4.5h-18.1c-3.6,4.7-7.9,8.9-12.8,12.3h26.2l16.3,60H24.2l16.3-60
	h25.6c-4.9-3.4-9.2-7.6-12.8-12.3H35.8c-2.8,0-5.2,1.9-5.9,4.5l-19.7,72.3c-0.5,1.8-0.1,3.8,1,5.3c1.2,1.5,3,2.4,4.9,2.4h167.7
	c1.9,0,3.7-0.9,4.9-2.4C189.9,183.1,190.3,181.2,189.8,179.3z"/>
</svg>
