<?xml version="1.0" encoding="utf-8"?>
<!-- Generator: Adobe Illustrator 22.0.1, SVG Export Plug-In . SVG Version: 6.00 Build 0)  -->
<svg version="1.1" id="Layer_1" xmlns="http://www.w3.org/2000/svg" xmlns:xlink="http://www.w3.org/1999/xlink" x="0px" y="0px"
	 viewBox="0 0 180 180" style="enable-background:new 0 0 180 180;" xml:space="preserve">
<style type="text/css">
	.st0{fill:#666666;}
</style>
<path class="st0" d="M175.5,164l-34.1-33.2c11.1-13.4,17.7-30.6,17.7-49.4c0-42.8-34.8-77.6-77.6-77.6S3.8,38.6,3.8,81.5
	s34.8,77.6,77.6,77.6c18.6,0,35.6-6.5,49-17.4l34.3,33.3c1.5,1.5,3.5,2.2,5.4,2.2c2,0,4-0.8,5.5-2.3
	C178.6,171.8,178.6,167,175.5,164z M19.2,81.5c0-34.3,27.9-62.2,62.2-62.2s62.2,27.9,62.2,62.2s-27.9,62.2-62.2,62.2
	S19.2,115.8,19.2,81.5z"/>
<path class="st0" d="M105.3,64.3c0,11.8-9.8,19.1-18.8,21.5c0,0,0,2.2,0,5.1c0,3.9-3.4,7.3-7.8,7.3c-4.8,0-7.8-3.7-7.8-7.5l0-9.7
	c0-3.5,2-5.9,6.1-7.2c7.3-2.3,11.9-4.9,11.9-9.8c0-6.4-6.6-7.2-10-6.4c-5.2,1.2-8.1,4-10.7,5.9c-3.4,2.5-7.8,1.7-10.3-1.4
	c-2.6-3.2-2.3-8.2,1.2-10.9c4.6-3.6,11.9-10.2,25.5-9.1C96.7,43.1,105.3,53.1,105.3,64.3z"/>
<circle class="st0" cx="78.4" cy="113.9" r="8.6"/>
</svg>
