<svg width='200' height='200' fill="#929394" xmlns="http://www.w3.org/2000/svg" xmlns:xlink="http://www.w3.org/1999/xlink" version="1.1" x="0px" y="0px" viewBox="0 0 100 100" style="enable-background:new 0 0 100 100;" xml:space="preserve"><path d="M50,95C25.3,95,5,74.7,5,50C5,25.3,25.3,5,50,5s45,20.3,45,45S74.7,95,50,95z M50,9.9C27.9,9.9,9.9,27.9,9.9,50  s18,40.1,40.1,40.1s40.1-18,40.1-40.1S72.1,9.9,50,9.9z"/><path d="M26.3,76.3c-0.6,0-1.2-0.2-1.8-0.8c-1-1-1-2.4,0-3.4l47.6-47.6c1-1,2.4-1,3.4,0c1,1,1,2.4,0,3.4L28.1,75.7  C27.7,76.1,27.1,76.3,26.3,76.3z"/></svg>