<svg width='200' height='200' fill="#929394" xmlns="http://www.w3.org/2000/svg" data-name="Layer 1" viewBox="0 0 100 100" x="0px" y="0px"><title>Artboard 4</title><path d="M32.8,36.67A10.24,10.24,0,0,0,47.28,51.14a2.5,2.5,0,0,1,3.54,3.54A15.24,15.24,0,0,1,29.27,33.13a15.3,15.3,0,0,1,19.94-1.4,2.5,2.5,0,1,1-3,4A10.28,10.28,0,0,0,32.8,36.67ZM8.39,52.47l3.65.64a29.26,29.26,0,0,0,1.68,4.08l-2.13,3a6.47,6.47,0,0,0,.72,8.3l3.1,3.1a6.47,6.47,0,0,0,8.3.72l3-2.13a29.33,29.33,0,0,0,4.08,1.69l.64,3.65a6.47,6.47,0,0,0,6.38,5.36h4.39a6.47,6.47,0,0,0,6.38-5.36l.64-3.65a29.39,29.39,0,0,0,4.08-1.69l3,2.13a2.5,2.5,0,1,0,2.87-4.09l-4.3-3a2.5,2.5,0,0,0-2.68-.12,24.36,24.36,0,0,1-5.84,2.42,2.5,2.5,0,0,0-1.81,2l-.91,5.17a1.48,1.48,0,0,1-1.46,1.22H37.85a1.48,1.48,0,0,1-1.46-1.22l-.91-5.17a2.5,2.5,0,0,0-1.81-2,24.32,24.32,0,0,1-5.84-2.42,2.5,2.5,0,0,0-2.68.12l-4.3,3A1.47,1.47,0,0,1,19,68.09L15.86,65a1.48,1.48,0,0,1-.17-1.89l3-4.3a2.5,2.5,0,0,0,.12-2.68,24.29,24.29,0,0,1-2.42-5.84,2.5,2.5,0,0,0-2-1.81l-5.17-.91A1.47,1.47,0,0,1,8,46.09V41.71a1.48,1.48,0,0,1,1.22-1.46l5.17-.91a2.5,2.5,0,0,0,2-1.82,24.26,24.26,0,0,1,2.42-5.84A2.5,2.5,0,0,0,18.71,29l-3-4.3a1.48,1.48,0,0,1,.17-1.89l3.1-3.1a1.47,1.47,0,0,1,1.89-.16l4.3,3a2.5,2.5,0,0,0,2.68.12,24.3,24.3,0,0,1,5.84-2.42,2.5,2.5,0,0,0,1.82-2l.91-5.17a1.48,1.48,0,0,1,1.46-1.22h4.39a1.48,1.48,0,0,1,1.46,1.22l.91,5.17a2.5,2.5,0,0,0,1.81,2,24.34,24.34,0,0,1,5.84,2.42,2.5,2.5,0,0,0,2.68-.12l4.3-3a2.5,2.5,0,1,0-2.87-4.09l-3,2.13a29.33,29.33,0,0,0-4.08-1.69l-.64-3.65a6.47,6.47,0,0,0-6.38-5.36H37.85a6.47,6.47,0,0,0-6.38,5.36l-.64,3.65a29.31,29.31,0,0,0-4.08,1.69l-3-2.13a6.47,6.47,0,0,0-8.3.72l-3.1,3.1a6.47,6.47,0,0,0-.72,8.3l2.13,3A29.36,29.36,0,0,0,12,34.69l-3.65.64A6.47,6.47,0,0,0,3,41.71v4.39A6.47,6.47,0,0,0,8.39,52.47ZM64.93,13.33A11.83,11.83,0,1,1,76.76,25.17,11.85,11.85,0,0,1,64.93,13.33Zm5,0A6.83,6.83,0,1,0,76.76,6.5,6.84,6.84,0,0,0,69.93,13.33Zm24.29,17.6a10.86,10.86,0,0,1,2.69,8.44l-2.43,18.3a9.49,9.49,0,0,1-4.79,7.21l-3.9,28.58a5.72,5.72,0,0,1-5.7,5H73.45a5.74,5.74,0,0,1-5.7-5.09l-3.9-28.52A9.53,9.53,0,0,1,59,57.63L56.63,39.42A10.84,10.84,0,0,1,67.4,27.31h3.07a2.89,2.89,0,0,1,2.28,1.1l4,5,4-5a2.89,2.89,0,0,1,2.27-1.09h3.07A10.86,10.86,0,0,1,94.22,30.93Zm-3.73,3.33a5.77,5.77,0,0,0-4.36-2H84.06l-4.48,5.6a3.68,3.68,0,0,1-5.64,0l-4.48-5.59H67.4a5.84,5.84,0,0,0-5.81,6.5L64,57a4.59,4.59,0,0,0,3,3.84,2.5,2.5,0,0,1,1.61,2L72.7,92.79a.76.76,0,0,0,.74.71h6.63a.74.74,0,0,0,.74-.66l4.09-30a2.5,2.5,0,0,1,1.61-2,4.57,4.57,0,0,0,3-3.79l2.43-18.3A5.75,5.75,0,0,0,90.49,34.26Z"/></svg>