<svg width='200' height='200' fill="#929394" xmlns="http://www.w3.org/2000/svg" xmlns:xlink="http://www.w3.org/1999/xlink" version="1.1" x="0px" y="0px" viewBox="0 0 100 100" enable-background="new 0 0 100 100" xml:space="preserve"><path d="M26.793,27.743h18c0.828,0,1.5-0.672,1.5-1.5s-0.672-1.5-1.5-1.5h-18c-0.828,0-1.5,0.672-1.5,1.5  S25.965,27.743,26.793,27.743z"/><path d="M50.295,36.243c0-0.828-0.672-1.5-1.5-1.5h-22c-0.828,0-1.5,0.672-1.5,1.5s0.672,1.5,1.5,1.5h22  C49.623,37.743,50.295,37.071,50.295,36.243z"/><path d="M61.104,54.261c-2.976,0-5.946,1.168-8.165,3.487c-4.312,4.507-4.152,11.658,0.355,15.97  c2.188,2.093,4.999,3.133,7.806,3.133c2.975,0,5.945-1.169,8.163-3.488c4.313-4.508,4.152-11.657-0.354-15.969  C66.721,55.3,63.91,54.26,61.104,54.261z M67.094,71.289c-1.578,1.651-3.707,2.562-5.994,2.562c-2.146,0-4.182-0.817-5.732-2.301  c-1.601-1.531-2.51-3.595-2.559-5.811c-0.05-2.215,0.767-4.316,2.298-5.917c1.58-1.652,3.71-2.562,5.997-2.562  c2.145,0,4.18,0.816,5.73,2.301c1.602,1.531,2.51,3.595,2.561,5.81C69.443,67.586,68.627,69.688,67.094,71.289z"/><path d="M83.629,65.586c0.979-0.504,1.683-1.811,1.565-2.904l-0.524-2.888c-0.271-1.066-1.386-2.042-2.479-2.17  c0,0-1.792-0.209-2.726-1.944c-0.934-1.737-0.12-3.347-0.12-3.347c0.496-0.981,0.322-2.474-0.385-3.314c0,0-0.194-0.23-1.044-1.044  c-0.85-0.813-1.088-0.995-1.088-0.995c-0.29-0.223-0.651-0.375-1.036-0.471V30.243c0-2.2-1.311-5.233-2.912-6.741L61.705,12.984  c-1.602-1.508-4.712-2.741-6.912-2.741h-36c-2.2,0-4,1.8-4,4v66c0,2.2,1.8,4,4,4h26.762c0.48,0.304,1.096,0.47,1.708,0.47  c0.519,0,1.028-0.112,1.44-0.344c0,0,0.713-0.4,1.721-0.4c0.488,0,1.045,0.094,1.625,0.373c1.775,0.854,2.063,2.635,2.063,2.635  c0.176,1.086,1.2,2.157,2.278,2.381l2.908,0.395l0.139,0.005c1.064,0,2.252-0.74,2.693-1.697c0,0,0.751-1.634,2.688-1.984  c0.236-0.043,0.463-0.062,0.678-0.062c1.555,0,2.542,0.981,2.542,0.981c0.523,0.521,1.353,0.812,2.144,0.812  c0.389,0,0.77-0.07,1.1-0.218l2.584-1.398c0.93-0.588,1.512-1.952,1.296-3.03c0,0-0.354-1.767,1.008-3.189  c0.981-1.026,2.181-1.17,2.773-1.17c0.229,0,0.368,0.021,0.368,0.021c0.116,0.019,0.235,0.027,0.356,0.027  c1.008,0,2.126-0.604,2.614-1.457l1.282-2.642c0.404-1.023,0.073-2.47-0.736-3.214c0,0-1.328-1.223-1.064-3.177  C82.029,66.409,83.629,65.586,83.629,65.586z M57.293,13.808c0.93,0.36,1.815,0.853,2.355,1.361l11.176,10.518  c0.484,0.456,0.963,1.229,1.328,2.057H59.793c-0.688,0-1.305-0.277-1.765-0.735c-0.458-0.46-0.735-1.078-0.735-1.765V13.808z   M42.855,78.776c-0.355,0.704-0.361,1.667-0.08,2.467H18.793c-0.542,0-1-0.458-1-1v-66c0-0.542,0.458-1,1-1h35.5v12  c0.006,3.035,2.465,5.494,5.5,5.5h13v-0.5l0.001,16.765c-0.279,0.074-0.626,0.136-1.019,0.136c-0.487,0-1.045-0.094-1.623-0.373  c-1.776-0.854-2.063-2.637-2.063-2.637c-0.175-1.086-1.2-2.157-2.276-2.381l-2.909-0.395l-0.139-0.004  c-1.063,0-2.253,0.739-2.693,1.697c0,0-0.752,1.635-2.689,1.986c-0.235,0.043-0.462,0.062-0.678,0.062  c-1.556,0-2.542-0.982-2.542-0.982c-0.523-0.521-1.353-0.813-2.145-0.813c-0.389,0-0.77,0.07-1.1,0.218l-2.582,1.398  c-0.93,0.588-1.514,1.952-1.297,3.03c0,0,0.354,1.767-1.008,3.189c-0.981,1.027-2.181,1.17-2.773,1.17  c-0.229,0-0.367-0.021-0.367-0.021c-0.117-0.018-0.236-0.026-0.357-0.026c-1.008,0-2.125,0.604-2.613,1.456l-1.282,2.643  c-0.404,1.023-0.073,2.47,0.736,3.214c0,0,1.328,1.223,1.063,3.177c-0.266,1.951-1.864,2.773-1.864,2.773  c-0.978,0.504-1.683,1.811-1.565,2.904l0.523,2.89c0.271,1.066,1.387,2.042,2.48,2.169c0,0,1.79,0.208,2.723,1.944  C43.667,77.168,42.855,78.776,42.855,78.776z M78.789,67.959c-0.426,3.165,1.453,5.241,1.926,5.708l0.014,0.054l-1.02,2.101  l-0.037,0.022c-0.157-0.02-0.408-0.043-0.729-0.043c-1.097,0-3.197,0.272-4.94,2.096c-1.762,1.841-2.074,4.217-1.803,5.744  l-0.02,0.051l-2.053,1.11l-0.055-0.012c-0.461-0.432-2.097-1.776-4.576-1.776c-0.404,0-0.813,0.037-1.211,0.109  c-2.506,0.453-4.154,2.19-4.832,3.583l-0.052,0.032l-2.313-0.313l-0.036-0.04c-0.129-0.652-0.827-3.362-3.701-4.746  c-0.924-0.444-1.909-0.67-2.928-0.67c-1.55,0-2.696,0.521-3.111,0.741l-0.05,0.003l-0.116-0.012  c-0.123-0.108-0.367-0.329-0.787-0.731c-0.423-0.404-0.655-0.639-0.77-0.758l-0.018-0.165c0.263-0.559,1.334-3.189-0.195-6.033  c-1.205-2.245-3.369-3.276-4.908-3.491l-0.039-0.031l-0.416-2.298l0.03-0.052c1.361-0.74,3.022-2.464,3.366-4.987  c0.429-3.165-1.451-5.242-1.924-5.709l-0.014-0.054l1.02-2.102l0.037-0.022c0.156,0.021,0.406,0.043,0.729,0.043  c1.098,0,3.197-0.272,4.941-2.096c1.76-1.84,2.072-4.215,1.802-5.744l0.021-0.051l2.051-1.11l0.055,0.012  c0.462,0.434,2.098,1.778,4.577,1.778c0.403,0,0.813-0.037,1.214-0.11c2.504-0.454,4.152-2.191,4.832-3.585l0.051-0.032l2.313,0.313  l0.034,0.039c0.13,0.654,0.827,3.365,3.702,4.749c0.924,0.444,1.908,0.67,2.926,0.67c1.553,0,2.7-0.522,3.115-0.743l0.049-0.003  l0.115,0.012c0.124,0.109,0.368,0.331,0.788,0.733c0.421,0.402,0.653,0.637,0.77,0.756l0.017,0.164  c-0.264,0.563-1.334,3.192,0.195,6.039c1.512,2.81,4.249,3.387,4.906,3.487l0.041,0.033l0.417,2.297l-0.03,0.053  C81.582,63.293,79.223,64.793,78.789,67.959z"/></svg>