<svg width='200' height='200' fill="#929394" xmlns="http://www.w3.org/2000/svg" xmlns:xlink="http://www.w3.org/1999/xlink" version="1.1" x="0px" y="0px" viewBox="0 0 100 100" style="enable-background:new 0 0 100 100;" xml:space="preserve"><path d="M50,0.9L50,0.9C23.1,1,1.3,22.8,1.3,49.7c0,26.9,21.9,48.7,48.7,48.7c26.9,0,48.7-21.9,48.7-48.7  C98.7,22.8,76.9,0.9,50,0.9z M52,67.1V51.7h19.5c-0.1,6.4-0.9,12.5-2.3,18.2C63.5,68.3,57.7,67.3,52,67.1z M62.3,92.6  c4-4.1,7.4-10.1,9.7-17.6c5.3,1.8,9.2,3.7,11,4.7C77.4,85.9,70.3,90.3,62.3,92.6z M52,94.1v-23c5.3,0.3,10.7,1.2,16.1,2.7  C64.5,85.3,58.5,92.8,52,94.1z M71.7,23.6c-2.3-7.1-5.6-12.9-9.4-16.9c7.6,2.2,14.5,6.3,20,12.1C78.9,20.8,75.4,22.4,71.7,23.6z   M71.5,47.6H52V31.1c5.8-0.1,11.5-0.8,17-2.4C70.5,34.6,71.3,41,71.5,47.6z M52,27V5.2c6.3,1.3,12.2,8.5,15.8,19.6  C62.8,26.2,57.4,27,52,27z M94.6,51.7c-0.4,9-3.5,17.6-8.9,24.8c-1.7-1-6.2-3.3-12.6-5.5c1.5-6,2.3-12.5,2.5-19.3H94.6z M94.6,47.6  H75.6c-0.1-7.1-1-13.9-2.7-20.1C77,26.1,81.1,24.2,85,22C90.9,29.4,94.2,38.2,94.6,47.6z M26.8,70.6c-4.3,1.5-8.5,3.5-12.5,5.9  c-5.4-7.2-8.5-15.8-8.9-24.8h19C24.6,58.4,25.4,64.7,26.8,70.6z M5.4,47.6c0.4-9.4,3.7-18.3,9.6-25.7c2.2,1.2,6.4,3.3,12.2,5.2  c-1.7,6.3-2.6,13.2-2.8,20.6H5.4z M27.9,74.6c2.3,7.7,5.7,13.9,9.8,18c-8-2.3-15.1-6.7-20.7-12.9C20.5,77.6,24.2,75.9,27.9,74.6z   M28.5,51.7H48V67c-5.9,0.1-11.7,0.9-17.3,2.4C29.4,63.9,28.6,57.9,28.5,51.7z M48,71v23.1c-6.6-1.3-12.6-9-16.2-20.8  C37,71.9,42.4,71.1,48,71z M48,31v16.6H28.5c0.1-6.8,1.1-13.4,2.6-19.4C36.7,29.8,42.4,30.7,48,31z M17.8,18.8  c5.5-5.7,12.3-9.9,19.9-12c-3.8,3.9-7,9.5-9.3,16.5C23.5,21.6,19.9,19.9,17.8,18.8z M48,5.2v21.7c-5.2-0.3-10.5-1.1-15.7-2.6  C35.9,13.6,41.7,6.5,48,5.2z"/></svg>