<svg width='200' height='200' fill="#929394" xmlns="http://www.w3.org/2000/svg" xmlns:xlink="http://www.w3.org/1999/xlink" version="1.1" x="0px" y="0px" viewBox="0 0 24 24" enable-background="new 0 0 24 24" xml:space="preserve"><g><path d="M4.823,17.866c0.175,0.061,2.982,1,7.105,1c2.12,0,4.589-0.248,7.226-0.993c0.213-0.06,0.337-0.281,0.276-0.493   c-0.06-0.214-0.282-0.339-0.493-0.276c-7.513,2.121-13.793,0.028-13.854,0.007c-0.21-0.076-0.437,0.039-0.508,0.248   C4.503,17.567,4.614,17.795,4.823,17.866z"/><path d="M11.773,21.041l0.254-0.005l0.218,0.004c10.577-0.31,11.604-3.592,11.703-4.247c0.087-0.582-0.02-1.339-0.112-2.008   c-0.039-0.28-0.075-0.535-0.088-0.732c-0.029-0.444-0.225-0.979-0.99-1.006c-0.133-0.005-0.174-0.006-0.311-0.003l-0.308,0.001   c-0.985-4.654-4.84-6.323-5.948-6.712V5.016c0-0.221-0.18-0.4-0.4-0.4h-2.265V4.359c0-0.771-0.629-1.4-1.4-1.4h-0.25   c-0.771,0-1.4,0.629-1.4,1.4v0.256H8.21c-0.221,0-0.4,0.18-0.4,0.4v1.317C6.701,6.722,2.847,8.391,1.86,13.045l-0.308-0.001   c-0.137-0.003-0.176-0.002-0.311,0.003c-0.765,0.027-0.96,0.562-0.989,1.006c-0.013,0.197-0.049,0.452-0.088,0.732   c-0.094,0.668-0.199,1.426-0.112,2.008C0.149,17.447,1.168,20.729,11.773,21.041z M0.957,14.896   c0.043-0.302,0.081-0.577,0.095-0.79c0.017-0.252,0.051-0.254,0.219-0.26c0.119-0.003,0.154-0.005,0.274-0.002l0.645,0.003   c0.194,0,0.36-0.14,0.394-0.331C3.35,9.189,6.681,7.594,7.879,7.153l0.569,4.136c0.027,0.2,0.199,0.346,0.396,0.346   c0.019,0,0.037-0.002,0.056-0.004c0.219-0.03,0.372-0.232,0.342-0.451L8.61,6.598V5.416h1.864v5.818c0,0.221,0.18,0.4,0.4,0.4   s0.4-0.18,0.4-0.4V4.359c0-0.331,0.269-0.6,0.6-0.6h0.25c0.331,0,0.6,0.269,0.6,0.6v6.875c0,0.221,0.18,0.4,0.4,0.4   s0.4-0.18,0.4-0.4V5.416h1.864v1.139c-0.001,0.005-0.004,0.009-0.005,0.014l-0.634,4.61c-0.03,0.219,0.123,0.421,0.342,0.451   c0.019,0.002,0.037,0.004,0.056,0.004c0.196,0,0.368-0.146,0.396-0.346l0.569-4.139c1.191,0.437,4.535,2.029,5.303,6.365   c0.033,0.191,0.199,0.331,0.394,0.331l0.645-0.003c0.123-0.003,0.158-0.001,0.274,0.002c0.169,0.006,0.203,0.008,0.22,0.26   c0.014,0.213,0.052,0.488,0.094,0.79c0.082,0.585,0.184,1.313,0.114,1.779c-0.005,0.032-0.61,3.263-10.918,3.565l-0.293-0.003   l-0.167,0.004c-10.334-0.304-10.93-3.532-10.935-3.566C0.774,16.207,0.876,15.48,0.957,14.896z"/></g></svg>