<svg width='200' height='200' fill="#929394" xmlns="http://www.w3.org/2000/svg" xmlns:xlink="http://www.w3.org/1999/xlink" version="1.1" x="0px" y="0px" viewBox="0 0 512 512" enable-background="new 0 0 512 512" xml:space="preserve"><g><path d="M140.1,58.3L140.1,58.3c-40.9,0.1-72.5,11.3-81.5,21.8c-5,5.9-4.3,14.9,1.6,19.9c5.8,4.9,14.4,4.4,19.5-1.1   c3-2.3,23.3-12.3,60.4-12.3v-0.1c37,0,57.4,10.1,60.3,12.3c5.2,5.5,13.8,6.1,19.5,1.1c5.9-5,6.6-14,1.6-19.9   C212.6,69.6,181,58.3,140.1,58.3z"/><path d="M140.1,118.8L140.1,118.8c-40.9,0.1-72.5,11.3-81.5,21.8c-5,5.9-4.3,14.9,1.6,19.9c5.8,4.9,14.4,4.4,19.5-1.1   c3-2.3,23.3-12.3,60.4-12.3v-0.1c37,0,57.4,10.1,60.3,12.3c5.2,5.5,13.8,6.1,19.5,1.1c5.9-5,6.6-14,1.6-19.9   C212.6,130.1,181,118.8,140.1,118.8z"/><path d="M140.1,179.3L140.1,179.3c-40.9,0.1-72.5,11.3-81.5,21.8c-5,5.9-4.3,14.9,1.6,19.9c5.8,4.9,14.4,4.4,19.5-1.1   c3-2.3,23.3-12.3,60.4-12.3v-0.1c37,0,57.4,10.1,60.3,12.3c5.2,5.5,13.8,6.1,19.5,1.1c5.9-5,6.6-14,1.6-19.9   C212.6,190.6,181,179.3,140.1,179.3z"/><path d="M140.1,239.8L140.1,239.8c-40.9,0.1-72.5,11.3-81.5,21.8c-5,5.9-4.3,14.9,1.6,19.9c5.8,4.9,14.4,4.4,19.5-1.1   c3-2.3,23.3-12.3,60.4-12.3V268c37,0,57.4,10.1,60.3,12.3c5.2,5.5,13.8,6.1,19.5,1.1c5.9-5,6.6-14,1.6-19.9   C212.6,251.1,181,239.8,140.1,239.8z"/><path d="M140.1,300.3L140.1,300.3c-40.9,0.1-72.5,11.3-81.5,21.8c-5,5.9-4.3,14.9,1.6,19.9c5.8,4.9,14.4,4.4,19.5-1.1   c3-2.3,23.3-12.3,60.4-12.3v-0.1c37,0,57.4,10.1,60.3,12.3c5.2,5.5,13.8,6.1,19.5,1.1c5.9-5,6.6-14,1.6-19.9   C212.6,311.6,181,300.3,140.1,300.3z"/><path d="M495.9,135.7H278.2V90.8C278.2,41,217.6,2,140.1,2S2,41,2,90.8v405.1c0,7.8,6.3,14.1,14.1,14.1h479.8   c7.8,0,14.1-6.3,14.1-14.1V149.8C510,142,503.7,135.7,495.9,135.7z M170.2,481.8h-60.1v-85.1h60.1V481.8z M250,481.8h-51.6v-99.3   c0-7.8-6.3-14.1-14.1-14.1H96c-7.8,0-14.1,6.3-14.1,14.1v99.3H30.2v-391c0-32.8,50.3-60.6,109.9-60.6S250,58,250,90.8V481.8z    M481.8,481.8H278.2V163.9h203.5V481.8z"/><path d="M317.4,226.4h125.1c7.8,0,14.1-6.3,14.1-14.1s-6.3-14.1-14.1-14.1H317.4c-7.8,0-14.1,6.3-14.1,14.1   S309.7,226.4,317.4,226.4z"/><path d="M317.4,300.1h125.1c7.8,0,14.1-6.3,14.1-14.1s-6.3-14.1-14.1-14.1H317.4c-7.8,0-14.1,6.3-14.1,14.1   S309.7,300.1,317.4,300.1z"/><path d="M317.4,373.8h125.1c7.8,0,14.1-6.3,14.1-14.1c0-7.8-6.3-14.1-14.1-14.1H317.4c-7.8,0-14.1,6.3-14.1,14.1   C303.3,367.5,309.7,373.8,317.4,373.8z"/><path d="M317.4,447.5h125.1c7.8,0,14.1-6.3,14.1-14.1c0-7.8-6.3-14.1-14.1-14.1H317.4c-7.8,0-14.1,6.3-14.1,14.1   C303.3,441.2,309.7,447.5,317.4,447.5z"/></g></svg>