<svg width='200' height='200' fill="#929394" xmlns="http://www.w3.org/2000/svg" xmlns:xlink="http://www.w3.org/1999/xlink" version="1.1" x="0px" y="0px" viewBox="0 0 100 100" style="enable-background:new 0 0 100 100;" xml:space="preserve"><g><path d="M15,75c0,7.4,6.1,13.5,13.5,13.5h43C78.9,88.5,85,82.4,85,75V25c0-7.4-6.1-13.5-13.5-13.5h-43C21.1,11.5,15,17.6,15,25V75z    M18,25c0-5.8,4.7-10.5,10.5-10.5h43C77.3,14.5,82,19.2,82,25v50c0,5.8-4.7,10.5-10.5,10.5h-43C22.7,85.5,18,80.8,18,75V25z"/><path d="M31.5,34h37c3.9,0,7-3.1,7-7s-3.1-7-7-7h-37c-3.9,0-7,3.1-7,7S27.6,34,31.5,34z M31.5,23h37c2.2,0,4,1.8,4,4s-1.8,4-4,4   h-37c-2.2,0-4-1.8-4-4S29.3,23,31.5,23z"/><path d="M30,50h2c3,0,5.5-2.5,5.5-5.5S35,39,32,39h-2c-3,0-5.5,2.5-5.5,5.5S27,50,30,50z M30,42h2c1.4,0,2.5,1.1,2.5,2.5   S33.4,47,32,47h-2c-1.4,0-2.5-1.1-2.5-2.5S28.6,42,30,42z"/><path d="M30,65h2c3,0,5.5-2.5,5.5-5.5S35,54,32,54h-2c-3,0-5.5,2.5-5.5,5.5S27,65,30,65z M30,57h2c1.4,0,2.5,1.1,2.5,2.5   S33.4,62,32,62h-2c-1.4,0-2.5-1.1-2.5-2.5S28.6,57,30,57z"/><path d="M30,80h2c3,0,5.5-2.5,5.5-5.5S35,69,32,69h-2c-3,0-5.5,2.5-5.5,5.5S27,80,30,80z M30,72h2c1.4,0,2.5,1.1,2.5,2.5   S33.4,77,32,77h-2c-1.4,0-2.5-1.1-2.5-2.5S28.6,72,30,72z"/><path d="M51,39h-2c-3,0-5.5,2.5-5.5,5.5S46,50,49,50h2c3,0,5.5-2.5,5.5-5.5S54,39,51,39z M51,47h-2c-1.4,0-2.5-1.1-2.5-2.5   S47.6,42,49,42h2c1.4,0,2.5,1.1,2.5,2.5S52.4,47,51,47z"/><path d="M51,54h-2c-3,0-5.5,2.5-5.5,5.5S46,65,49,65h2c3,0,5.5-2.5,5.5-5.5S54,54,51,54z M51,62h-2c-1.4,0-2.5-1.1-2.5-2.5   S47.6,57,49,57h2c1.4,0,2.5,1.1,2.5,2.5S52.4,62,51,62z"/><path d="M51,69h-2c-3,0-5.5,2.5-5.5,5.5S46,80,49,80h2c3,0,5.5-2.5,5.5-5.5S54,69,51,69z M51,77h-2c-1.4,0-2.5-1.1-2.5-2.5   S47.6,72,49,72h2c1.4,0,2.5,1.1,2.5,2.5S52.4,77,51,77z"/><path d="M70,39h-2c-3,0-5.5,2.5-5.5,5.5S65,50,68,50h2c3,0,5.5-2.5,5.5-5.5S73,39,70,39z M70,47h-2c-1.4,0-2.5-1.1-2.5-2.5   S66.6,42,68,42h2c1.4,0,2.5,1.1,2.5,2.5S71.4,47,70,47z"/><path d="M70,54h-2c-3,0-5.5,2.5-5.5,5.5S65,65,68,65h2c3,0,5.5-2.5,5.5-5.5S73,54,70,54z M70,62h-2c-1.4,0-2.5-1.1-2.5-2.5   S66.6,57,68,57h2c1.4,0,2.5,1.1,2.5,2.5S71.4,62,70,62z"/><path d="M70,69h-2c-3,0-5.5,2.5-5.5,5.5S65,80,68,80h2c3,0,5.5-2.5,5.5-5.5S73,69,70,69z M70,77h-2c-1.4,0-2.5-1.1-2.5-2.5   S66.6,72,68,72h2c1.4,0,2.5,1.1,2.5,2.5S71.4,77,70,77z"/></g></svg>