<svg width='200' height='200' fill="#929394" xmlns="http://www.w3.org/2000/svg" xmlns:xlink="http://www.w3.org/1999/xlink" version="1.1" x="0px" y="0px" viewBox="0 0 100 100" style="enable-background:new 0 0 100 100;" xml:space="preserve"><path d="M34.3,41c4.8,0,8.7-3.9,8.7-8.7c0-4.8-3.9-8.7-8.7-8.7s-8.7,3.9-8.7,8.7C25.6,37.1,29.5,41,34.3,41z M34.3,26.5  c3.2,0,5.7,2.6,5.7,5.7c0,3.2-2.6,5.7-5.7,5.7s-5.7-2.6-5.7-5.7C28.6,29.1,31.2,26.5,34.3,26.5z M45.7,43.9H22.9  c-1.6,0-2.9,1.3-2.9,2.9v21.4c0,0.8,0.7,1.5,1.5,1.5h3.8V75c0,0.8,0.7,1.5,1.5,1.5h15.1c0.8,0,1.5-0.7,1.5-1.5v-5.2h3.8  c0.8,0,1.5-0.7,1.5-1.5V46.8C48.7,45.2,47.3,43.9,45.7,43.9z M45.7,66.7h-2.3V50.7c0-0.8-0.7-1.5-1.5-1.5s-1.5,0.7-1.5,1.5v22.8  H28.3v-5.2c0,0,0,0,0,0s0,0,0,0V50.7c0-0.8-0.7-1.5-1.5-1.5s-1.5,0.7-1.5,1.5v16.1H23l-0.1-19.9l22.7-0.1V66.7z M65.7,41  c4.8,0,8.7-3.9,8.7-8.7c0-4.8-3.9-8.7-8.7-8.7c-4.8,0-8.7,3.9-8.7,8.7C56.9,37.1,60.9,41,65.7,41z M65.7,26.5c3.2,0,5.7,2.6,5.7,5.7  c0,3.2-2.6,5.7-5.7,5.7c-3.2,0-5.7-2.6-5.7-5.7C59.9,29.1,62.5,26.5,65.7,26.5z M77.1,43.9H54.3c-1.6,0-2.9,1.3-2.9,2.9v21.4  c0,0.8,0.7,1.5,1.5,1.5h3.8V75c0,0.8,0.7,1.5,1.5,1.5h15.1c0.8,0,1.5-0.7,1.5-1.5v-5.2h3.8c0.8,0,1.5-0.7,1.5-1.5V46.8  C80,45.2,78.7,43.9,77.1,43.9z M77,66.7h-2.3V50.7c0-0.8-0.7-1.5-1.5-1.5s-1.5,0.7-1.5,1.5v22.8H59.6v-5.2c0,0,0,0,0,0s0,0,0,0V50.7  c0-0.8-0.7-1.5-1.5-1.5s-1.5,0.7-1.5,1.5v16.1h-2.3l-0.1-19.9L77,46.8V66.7z"/></svg>