<svg width='200' height='200' fill="#929394" xmlns="http://www.w3.org/2000/svg" data-name="Layer 1" viewBox="0 0 100 100" x="0px" y="0px"><title>Artboard 5</title><path d="M81.5,40.62a2.5,2.5,0,0,0,2.5-2.5V31.51a2.5,2.5,0,0,0-5,0v6.61A2.5,2.5,0,0,0,81.5,40.62Z"/><path d="M81.5,23.63a2.5,2.5,0,0,0,2.5-2.5V14.53a2.5,2.5,0,0,0-5,0v6.61A2.5,2.5,0,0,0,81.5,23.63Z"/><path d="M81.5,57.6A2.5,2.5,0,0,0,84,55.1V48.5a2.5,2.5,0,1,0-5,0v6.6A2.5,2.5,0,0,0,81.5,57.6Z"/><path d="M7.65,91.59a2.53,2.53,0,0,0,.43,0,2.5,2.5,0,0,0,2.46-2.07l6.89-39.74a15.64,15.64,0,0,1,7.73-10.95A81.28,81.28,0,0,1,32.93,35a49.48,49.48,0,0,1,8.22-2.8V48.87a16.76,16.76,0,0,0-1.81-.6A2.5,2.5,0,1,0,38,53.1a9.84,9.84,0,0,1,3.61,1.76,21.17,21.17,0,0,1-5.85,6A2.5,2.5,0,0,0,38.62,65,26.15,26.15,0,0,0,46,57.29l8.14-12.84a4.41,4.41,0,0,1,7.47,4.7L55.53,59A23.39,23.39,0,0,0,52,72.08a18.38,18.38,0,0,1-8,15.76l-.66.45a23.31,23.31,0,0,0-6.6,6.87A2.5,2.5,0,1,0,41,97.83a18.34,18.34,0,0,1,5.19-5.41l.66-.45A23.39,23.39,0,0,0,55.22,81.6l.61.62A7.9,7.9,0,0,0,69,79a7.66,7.66,0,0,0,8.91-10l-.12-.35H87.92a6.51,6.51,0,0,0,6.51-6.51V7.51A6.51,6.51,0,0,0,87.92,1H47.65a6.51,6.51,0,0,0-6.51,6.51V27a52.69,52.69,0,0,0-10.21,3.35,86.19,86.19,0,0,0-8.26,4.16A20.62,20.62,0,0,0,12.5,49L5.61,88.7A2.5,2.5,0,0,0,7.65,91.59ZM63.31,78.92a2.9,2.9,0,0,1-3.91-.22L56.75,76A23.65,23.65,0,0,0,57,71.93a18.49,18.49,0,0,1,.21-3.3H60s0,.1.07.15l3.9,6.34A2.92,2.92,0,0,1,63.31,78.92Zm8.58-5a2.65,2.65,0,0,1-3.44-1l0,0c-.08-.14-.15-.28-.23-.42l-2.37-3.86H72.5l.71,2A2.66,2.66,0,0,1,71.89,73.9ZM59.67,6H87.92a1.51,1.51,0,0,1,1.51,1.51V62.12a1.51,1.51,0,0,1-1.51,1.51H58.71a18.54,18.54,0,0,1,1.07-2L65.9,51.8a9.41,9.41,0,0,0-3.16-13.06,9.49,9.49,0,0,0-3.08-1.17ZM46.15,7.51A1.51,1.51,0,0,1,47.65,6h7V38A9.39,9.39,0,0,0,50,41.78l-3.82,6Z"/></svg>