<svg width='200' height='200' fill="#929394" xmlns="http://www.w3.org/2000/svg" data-name="Layer 1" viewBox="0 0 96 96" x="0px" y="0px"><title>Office</title><path d="M31.37,70.87H64.63a8.27,8.27,0,0,0,8.26-8.26v-25a8.27,8.27,0,0,0-8.26-8.26H60.29V25.13h-3v4.22H38.67V25.13h-3v4.22H31.37a8.27,8.27,0,0,0-8.26,8.26v25A8.27,8.27,0,0,0,31.37,70.87Zm33.25-3H31.37a5.31,5.31,0,0,1-5.3-5.3V42.41H69.93v20.2A5.31,5.31,0,0,1,64.63,67.91ZM31.37,32.31h4.34v2.43h3V32.31H57.33v2.43h3V32.31h4.34a5.31,5.31,0,0,1,5.3,5.3v1.84H26.07V37.62A5.31,5.31,0,0,1,31.37,32.31Z"/></svg>