<svg width='200' height='200' fill="#929394" xmlns="http://www.w3.org/2000/svg" xmlns:xlink="http://www.w3.org/1999/xlink" version="1.1" x="0px" y="0px" viewBox="0 0 512 512" enable-background="new 0 0 512 512" xml:space="preserve"><path d="M466.9,397.4V272.8c0-7.8-6.3-14.1-14.1-14.1H270.1v-91.9c39.1-6.7,69-40.8,69-81.8C339.1,39.3,301.8,2,256,2  s-83.1,37.3-83.1,83.1c0,41,29.9,75.1,69,81.8v91.9H59.2c-7.8,0-14.1,6.3-14.1,14.1v124.5C20.4,403.7,2,426.1,2,452.8  C2,484.3,27.7,510,59.2,510c31.6,0,57.2-25.7,57.2-57.2c0-26.7-18.4-49.1-43.1-55.4V287h168.5v110.4c-24.7,6.3-43.1,28.7-43.1,55.4  c0,31.6,25.7,57.2,57.2,57.2c31.6,0,57.2-25.7,57.2-57.2c0-26.7-18.4-49.1-43.1-55.4V287h168.5v110.4c-24.7,6.3-43.1,28.7-43.1,55.4  c0,31.6,25.7,57.2,57.2,57.2c31.6,0,57.2-25.7,57.2-57.2C510,426.1,491.6,403.7,466.9,397.4z M88.3,452.8c0,16-13,29-29,29  c-16,0-29-13-29-29c0-16,13-29,29-29C75.2,423.7,88.3,436.8,88.3,452.8z M285,452.8c0,16-13,29-29,29c-16,0-29-13-29-29  c0-16,13-29,29-29C272,423.7,285,436.8,285,452.8z M256,139.9c-30.2,0-54.8-24.6-54.8-54.9c0-30.2,24.6-54.8,54.8-54.8  c30.2,0,54.9,24.6,54.9,54.8C310.9,115.3,286.2,139.9,256,139.9z M452.8,481.8c-16,0-29-13-29-29c0-16,13-29,29-29c16,0,29,13,29,29  C481.8,468.8,468.8,481.8,452.8,481.8z"/></svg>